solid 0.01.stl
facet normal -0.5 0.0 -0.8660254
outer loop
vertex 99.481870625 -0.5181293750000009 -156.6025
vertex 48.96374125 -0.5181293750000009 -127.73499749999999
vertex 99.481870625 50.0 -156.6025
endloop
endfacet
facet normal -0.5 0.0 -0.8660254
outer loop
vertex 99.481870625 50.0 -156.6025
vertex 48.96374125 -0.5181293750000009 -127.73499749999999
vertex 48.96374125 50.0 -127.73499749999999
endloop
endfacet
facet normal 0.5 0.0 -0.8660254
outer loop
vertex 150.0 -0.5181293750000009 -127.73499749999999
vertex 99.481870625 -0.5181293750000009 -156.6025
vertex 150.0 50.0 -127.73499749999999
endloop
endfacet
facet normal 0.5 0.0 -0.8660254
outer loop
vertex 150.0 50.0 -127.73499749999999
vertex 99.481870625 -0.5181293750000009 -156.6025
vertex 99.481870625 50.0 -156.6025
endloop
endfacet
facet normal 1.0 -0.0 0.0
outer loop
vertex 150.0 -0.5181293750000009 -69.99999249999999
vertex 150.0 -0.5181293750000009 -127.73499749999999
vertex 150.0 50.0 -69.99999249999999
endloop
endfacet
facet normal 1.0 0.0 0.0
outer loop
vertex 150.0 50.0 -69.99999249999999
vertex 150.0 -0.5181293750000009 -127.73499749999999
vertex 150.0 50.0 -127.73499749999999
endloop
endfacet
facet normal 0.5 -0.0 0.8660254
outer loop
vertex 99.481870625 -0.5181293750000009 -41.13249
vertex 150.0 -0.5181293750000009 -69.99999249999999
vertex 99.481870625 50.0 -41.13249
endloop
endfacet
facet normal 0.5 0.0 0.8660254
outer loop
vertex 99.481870625 50.0 -41.13249
vertex 150.0 -0.5181293750000009 -69.99999249999999
vertex 150.0 50.0 -69.99999249999999
endloop
endfacet
facet normal -0.5 0.0 0.8660254
outer loop
vertex 48.96374125 -0.5181293750000009 -69.99999249999999
vertex 99.481870625 -0.5181293750000009 -41.13249
vertex 48.96374125 50.0 -69.99999249999999
endloop
endfacet
facet normal -0.5 0.0 0.8660254
outer loop
vertex 48.96374125 50.0 -69.99999249999999
vertex 99.481870625 -0.5181293750000009 -41.13249
vertex 99.481870625 50.0 -41.13249
endloop
endfacet
facet normal -1.0 0.0 0.0
outer loop
vertex 48.96374125 -0.5181293750000009 -127.73499749999999
vertex 48.96374125 -0.5181293750000009 -69.99999249999999
vertex 48.96374125 50.0 -127.73499749999999
endloop
endfacet
facet normal -1.0 0.0 0.0
outer loop
vertex 48.96374125 50.0 -127.73499749999999
vertex 48.96374125 -0.5181293750000009 -69.99999249999999
vertex 48.96374125 50.0 -69.99999249999999
endloop
endfacet
facet normal -0.0 1.0 0.0
outer loop
vertex 48.96374125 50.0 -127.73499749999999
vertex 48.96374125 50.0 -69.99999249999999
vertex 99.481870625 50.0 -156.6025
endloop
endfacet
facet normal 0.0 1.0 -0.0
outer loop
vertex 99.481870625 50.0 -156.6025
vertex 48.96374125 50.0 -69.99999249999999
vertex 99.481870625 50.0 -41.13249
endloop
endfacet
facet normal 0.0 1.0 0.0
outer loop
vertex 99.481870625 50.0 -156.6025
vertex 99.481870625 50.0 -41.13249
vertex 150.0 50.0 -127.73499749999999
endloop
endfacet
facet normal 0.0 1.0 -0.0
outer loop
vertex 150.0 50.0 -127.73499749999999
vertex 99.481870625 50.0 -41.13249
vertex 150.0 50.0 -69.99999249999999
endloop
endfacet
facet normal 0.0 -1.0 0.0
outer loop
vertex 48.96374125 -0.5181293750000009 -69.99999249999999
vertex 48.96374125 -0.5181293750000009 -127.73499749999999
vertex 99.481870625 -0.5181293750000009 -41.13249
endloop
endfacet
facet normal 0.0 -1.0 -0.0
outer loop
vertex 99.481870625 -0.5181293750000009 -41.13249
vertex 48.96374125 -0.5181293750000009 -127.73499749999999
vertex 99.481870625 -0.5181293750000009 -156.6025
endloop
endfacet
facet normal 0.0 -1.0 0.0
outer loop
vertex 99.481870625 -0.5181293750000009 -41.13249
vertex 99.481870625 -0.5181293750000009 -156.6025
vertex 150.0 -0.5181293750000009 -69.99999249999999
endloop
endfacet
facet normal 0.0 -1.0 -0.0
outer loop
vertex 150.0 -0.5181293750000009 -69.99999249999999
vertex 99.481870625 -0.5181293750000009 -156.6025
vertex 150.0 -0.5181293750000009 -127.73499749999999
endloop
endfacet
endsolid 0.01.stl
