solid 0.1.stl
facet normal -0.5 0.0 -0.8660254
outer loop
vertex 92.264995 -7.735005000000001 -156.6025
vertex 48.96374125 6.698746249999999 -127.73499749999999
vertex 92.264995 50.0 -156.6025
endloop
endfacet
facet normal -0.5 0.0 -0.8660254
outer loop
vertex 92.264995 50.0 -156.6025
vertex 48.96374125 6.698746249999999 -127.73499749999999
vertex 48.96374125 50.0 -127.73499749999999
endloop
endfacet
facet normal 0.5 0.0 -0.8660254
outer loop
vertex 150.0 -7.735005000000001 -127.73499749999999
vertex 92.264995 -7.735005000000001 -156.6025
vertex 150.0 50.0 -127.73499749999999
endloop
endfacet
facet normal 0.5 0.0 -0.8660254
outer loop
vertex 150.0 50.0 -127.73499749999999
vertex 92.264995 -7.735005000000001 -156.6025
vertex 92.264995 50.0 -156.6025
endloop
endfacet
facet normal 1.0 -0.0 0.0
outer loop
vertex 150.0 -7.735005000000001 -69.99999249999999
vertex 150.0 -7.735005000000001 -127.73499749999999
vertex 150.0 50.0 -69.99999249999999
endloop
endfacet
facet normal 1.0 0.0 0.0
outer loop
vertex 150.0 50.0 -69.99999249999999
vertex 150.0 -7.735005000000001 -127.73499749999999
vertex 150.0 50.0 -127.73499749999999
endloop
endfacet
facet normal 0.5 -0.0 0.8660254
outer loop
vertex 92.264995 -7.735005000000001 -41.13249
vertex 150.0 -7.735005000000001 -69.99999249999999
vertex 92.264995 50.0 -41.13249
endloop
endfacet
facet normal 0.5 0.0 0.8660254
outer loop
vertex 92.264995 50.0 -41.13249
vertex 150.0 -7.735005000000001 -69.99999249999999
vertex 150.0 50.0 -69.99999249999999
endloop
endfacet
facet normal -0.5 0.0 0.8660254
outer loop
vertex 48.96374125 6.698746249999999 -69.99999249999999
vertex 92.264995 -7.735005000000001 -41.13249
vertex 48.96374125 50.0 -69.99999249999999
endloop
endfacet
facet normal -0.5 0.0 0.8660254
outer loop
vertex 48.96374125 50.0 -69.99999249999999
vertex 92.264995 -7.735005000000001 -41.13249
vertex 92.264995 50.0 -41.13249
endloop
endfacet
facet normal -1.0 0.0 0.0
outer loop
vertex 48.96374125 6.698746249999999 -127.73499749999999
vertex 48.96374125 6.698746249999999 -69.99999249999999
vertex 48.96374125 50.0 -127.73499749999999
endloop
endfacet
facet normal -1.0 0.0 0.0
outer loop
vertex 48.96374125 50.0 -127.73499749999999
vertex 48.96374125 6.698746249999999 -69.99999249999999
vertex 48.96374125 50.0 -69.99999249999999
endloop
endfacet
facet normal -0.0 1.0 0.0
outer loop
vertex 48.96374125 50.0 -127.73499749999999
vertex 48.96374125 50.0 -69.99999249999999
vertex 92.264995 50.0 -156.6025
endloop
endfacet
facet normal 0.0 1.0 -0.0
outer loop
vertex 92.264995 50.0 -156.6025
vertex 48.96374125 50.0 -69.99999249999999
vertex 92.264995 50.0 -41.13249
endloop
endfacet
facet normal 0.0 1.0 0.0
outer loop
vertex 92.264995 50.0 -156.6025
vertex 92.264995 50.0 -41.13249
vertex 150.0 50.0 -127.73499749999999
endloop
endfacet
facet normal 0.0 1.0 -0.0
outer loop
vertex 150.0 50.0 -127.73499749999999
vertex 92.264995 50.0 -41.13249
vertex 150.0 50.0 -69.99999249999999
endloop
endfacet
facet normal 0.0 -1.0 0.0
outer loop
vertex 48.96374125 6.698746249999999 -69.99999249999999
vertex 48.96374125 6.698746249999999 -127.73499749999999
vertex 92.264995 -7.735005000000001 -41.13249
endloop
endfacet
facet normal 0.0 -1.0 -0.0
outer loop
vertex 92.264995 -7.735005000000001 -41.13249
vertex 48.96374125 6.698746249999999 -127.73499749999999
vertex 92.264995 -7.735005000000001 -156.6025
endloop
endfacet
facet normal 0.0 -1.0 0.0
outer loop
vertex 92.264995 -7.735005000000001 -41.13249
vertex 92.264995 -7.735005000000001 -156.6025
vertex 150.0 -7.735005000000001 -69.99999249999999
endloop
endfacet
facet normal 0.0 -1.0 -0.0
outer loop
vertex 150.0 -7.735005000000001 -69.99999249999999
vertex 92.264995 -7.735005000000001 -156.6025
vertex 150.0 -7.735005000000001 -127.73499749999999
endloop
endfacet
endsolid 0.1.stl
